HIERARCHY
ROOT mixamorig:Hips
{
  OFFSET 0 98.0000 0
  CHANNELS 6 Xposition Yposition Zposition Zrotation Xrotation Yrotation
  JOINT mixamorig:Spine
  {
    OFFSET 0 8.0000 0
    CHANNELS 3 Zrotation Xrotation Yrotation
    JOINT mixamorig:Spine1
    {
      OFFSET 0 12.0000 0
      CHANNELS 3 Zrotation Xrotation Yrotation
      JOINT mixamorig:Spine2
      {
        OFFSET 0 12.0000 0
        CHANNELS 3 Zrotation Xrotation Yrotation
        JOINT mixamorig:Neck
        {
          OFFSET 0 16.0000 0
          CHANNELS 3 Zrotation Xrotation Yrotation
          JOINT mixamorig:Head
          {
            OFFSET 0 9.0000 1.0000
            CHANNELS 3 Zrotation Xrotation Yrotation
            End Site
            {
              OFFSET 0 18.0000 0
            }
          }
        }
        JOINT mixamorig:LeftShoulder
        {
          OFFSET 3.0000 12.0000 0
          CHANNELS 3 Zrotation Xrotation Yrotation
          JOINT mixamorig:LeftArm
          {
            OFFSET 13.0000 0 0
            CHANNELS 3 Zrotation Xrotation Yrotation
            JOINT mixamorig:LeftForeArm
            {
              OFFSET 27.0000 0 0
              CHANNELS 3 Zrotation Xrotation Yrotation
              JOINT mixamorig:LeftHand
              {
                OFFSET 25.0000 0 0
                CHANNELS 3 Zrotation Xrotation Yrotation
                JOINT mixamorig:LeftHandThumb1
                {
                  OFFSET 2.5000 -1.0000 3.0000
                  CHANNELS 3 Zrotation Xrotation Yrotation
                  JOINT mixamorig:LeftHandThumb2
                  {
                    OFFSET 3.0000 0 2.0000
                    CHANNELS 3 Zrotation Xrotation Yrotation
                    JOINT mixamorig:LeftHandThumb3
                    {
                      OFFSET 2.5000 0 1.5000
                      CHANNELS 3 Zrotation Xrotation Yrotation
                      JOINT mixamorig:LeftHandThumb4
                      {
                        OFFSET 2.0000 0 1.0000
                        CHANNELS 3 Zrotation Xrotation Yrotation
                        End Site
                        {
                          OFFSET 0.6000 0 0
                        }
                      }
                    }
                  }
                }
                JOINT mixamorig:LeftHandIndex1
                {
                  OFFSET 9.0000 0 2.5000
                  CHANNELS 3 Zrotation Xrotation Yrotation
                  JOINT mixamorig:LeftHandIndex2
                  {
                    OFFSET 4.0000 0 0
                    CHANNELS 3 Zrotation Xrotation Yrotation
                    JOINT mixamorig:LeftHandIndex3
                    {
                      OFFSET 2.5000 0 0
                      CHANNELS 3 Zrotation Xrotation Yrotation
                      JOINT mixamorig:LeftHandIndex4
                      {
                        OFFSET 2.0000 0 0
                        CHANNELS 3 Zrotation Xrotation Yrotation
                        End Site
                        {
                          OFFSET 0.6000 0 0
                        }
                      }
                    }
                  }
                }
                JOINT mixamorig:LeftHandMiddle1
                {
                  OFFSET 9.5000 0 0.8000
                  CHANNELS 3 Zrotation Xrotation Yrotation
                  JOINT mixamorig:LeftHandMiddle2
                  {
                    OFFSET 4.5000 0 0
                    CHANNELS 3 Zrotation Xrotation Yrotation
                    JOINT mixamorig:LeftHandMiddle3
                    {
                      OFFSET 2.8000 0 0
                      CHANNELS 3 Zrotation Xrotation Yrotation
                      JOINT mixamorig:LeftHandMiddle4
                      {
                        OFFSET 2.1000 0 0
                        CHANNELS 3 Zrotation Xrotation Yrotation
                        End Site
                        {
                          OFFSET 0.6000 0 0
                        }
                      }
                    }
                  }
                }
                JOINT mixamorig:LeftHandRing1
                {
                  OFFSET 9.0000 0 -0.9000
                  CHANNELS 3 Zrotation Xrotation Yrotation
                  JOINT mixamorig:LeftHandRing2
                  {
                    OFFSET 4.2000 0 0
                    CHANNELS 3 Zrotation Xrotation Yrotation
                    JOINT mixamorig:LeftHandRing3
                    {
                      OFFSET 2.6000 0 0
                      CHANNELS 3 Zrotation Xrotation Yrotation
                      JOINT mixamorig:LeftHandRing4
                      {
                        OFFSET 2.0000 0 0
                        CHANNELS 3 Zrotation Xrotation Yrotation
                        End Site
                        {
                          OFFSET 0.6000 0 0
                        }
                      }
                    }
                  }
                }
                JOINT mixamorig:LeftHandPinky1
                {
                  OFFSET 8.0000 0 -2.5000
                  CHANNELS 3 Zrotation Xrotation Yrotation
                  JOINT mixamorig:LeftHandPinky2
                  {
                    OFFSET 3.3000 0 0
                    CHANNELS 3 Zrotation Xrotation Yrotation
                    JOINT mixamorig:LeftHandPinky3
                    {
                      OFFSET 2.0000 0 0
                      CHANNELS 3 Zrotation Xrotation Yrotation
                      JOINT mixamorig:LeftHandPinky4
                      {
                        OFFSET 1.7000 0 0
                        CHANNELS 3 Zrotation Xrotation Yrotation
                        End Site
                        {
                          OFFSET 0.6000 0 0
                        }
                      }
                    }
                  }
                }
                End Site
                {
                  OFFSET 8.0000 0 0
                }
              }
            }
          }
        }
        JOINT mixamorig:RightShoulder
        {
          OFFSET -3.0000 12.0000 0
          CHANNELS 3 Zrotation Xrotation Yrotation
          JOINT mixamorig:RightArm
          {
            OFFSET -13.0000 0 0
            CHANNELS 3 Zrotation Xrotation Yrotation
            JOINT mixamorig:RightForeArm
            {
              OFFSET -27.0000 0 0
              CHANNELS 3 Zrotation Xrotation Yrotation
              JOINT mixamorig:RightHand
              {
                OFFSET -25.0000 0 0
                CHANNELS 3 Zrotation Xrotation Yrotation
                JOINT mixamorig:RightHandThumb1
                {
                  OFFSET -2.5000 -1.0000 3.0000
                  CHANNELS 3 Zrotation Xrotation Yrotation
                  JOINT mixamorig:RightHandThumb2
                  {
                    OFFSET -3.0000 0 2.0000
                    CHANNELS 3 Zrotation Xrotation Yrotation
                    JOINT mixamorig:RightHandThumb3
                    {
                      OFFSET -2.5000 0 1.5000
                      CHANNELS 3 Zrotation Xrotation Yrotation
                      JOINT mixamorig:RightHandThumb4
                      {
                        OFFSET -2.0000 0 1.0000
                        CHANNELS 3 Zrotation Xrotation Yrotation
                        End Site
                        {
                          OFFSET -0.6000 0 0
                        }
                      }
                    }
                  }
                }
                JOINT mixamorig:RightHandIndex1
                {
                  OFFSET -9.0000 0 2.5000
                  CHANNELS 3 Zrotation Xrotation Yrotation
                  JOINT mixamorig:RightHandIndex2
                  {
                    OFFSET -4.0000 0 0
                    CHANNELS 3 Zrotation Xrotation Yrotation
                    JOINT mixamorig:RightHandIndex3
                    {
                      OFFSET -2.5000 0 0
                      CHANNELS 3 Zrotation Xrotation Yrotation
                      JOINT mixamorig:RightHandIndex4
                      {
                        OFFSET -2.0000 0 0
                        CHANNELS 3 Zrotation Xrotation Yrotation
                        End Site
                        {
                          OFFSET -0.6000 0 0
                        }
                      }
                    }
                  }
                }
                JOINT mixamorig:RightHandMiddle1
                {
                  OFFSET -9.5000 0 0.8000
                  CHANNELS 3 Zrotation Xrotation Yrotation
                  JOINT mixamorig:RightHandMiddle2
                  {
                    OFFSET -4.5000 0 0
                    CHANNELS 3 Zrotation Xrotation Yrotation
                    JOINT mixamorig:RightHandMiddle3
                    {
                      OFFSET -2.8000 0 0
                      CHANNELS 3 Zrotation Xrotation Yrotation
                      JOINT mixamorig:RightHandMiddle4
                      {
                        OFFSET -2.1000 0 0
                        CHANNELS 3 Zrotation Xrotation Yrotation
                        End Site
                        {
                          OFFSET -0.6000 0 0
                        }
                      }
                    }
                  }
                }
                JOINT mixamorig:RightHandRing1
                {
                  OFFSET -9.0000 0 -0.9000
                  CHANNELS 3 Zrotation Xrotation Yrotation
                  JOINT mixamorig:RightHandRing2
                  {
                    OFFSET -4.2000 0 0
                    CHANNELS 3 Zrotation Xrotation Yrotation
                    JOINT mixamorig:RightHandRing3
                    {
                      OFFSET -2.6000 0 0
                      CHANNELS 3 Zrotation Xrotation Yrotation
                      JOINT mixamorig:RightHandRing4
                      {
                        OFFSET -2.0000 0 0
                        CHANNELS 3 Zrotation Xrotation Yrotation
                        End Site
                        {
                          OFFSET -0.6000 0 0
                        }
                      }
                    }
                  }
                }
                JOINT mixamorig:RightHandPinky1
                {
                  OFFSET -8.0000 0 -2.5000
                  CHANNELS 3 Zrotation Xrotation Yrotation
                  JOINT mixamorig:RightHandPinky2
                  {
                    OFFSET -3.3000 0 0
                    CHANNELS 3 Zrotation Xrotation Yrotation
                    JOINT mixamorig:RightHandPinky3
                    {
                      OFFSET -2.0000 0 0
                      CHANNELS 3 Zrotation Xrotation Yrotation
                      JOINT mixamorig:RightHandPinky4
                      {
                        OFFSET -1.7000 0 0
                        CHANNELS 3 Zrotation Xrotation Yrotation
                        End Site
                        {
                          OFFSET -0.6000 0 0
                        }
                      }
                    }
                  }
                }
                End Site
                {
                  OFFSET -8.0000 0 0
                }
              }
            }
          }
        }
      }
    }
  }
  JOINT mixamorig:LeftUpLeg
  {
    OFFSET 9.0000 -6.0000 0
    CHANNELS 3 Zrotation Xrotation Yrotation
    JOINT mixamorig:LeftLeg
    {
      OFFSET 0 -43.0000 0
      CHANNELS 3 Zrotation Xrotation Yrotation
      JOINT mixamorig:LeftFoot
      {
        OFFSET 0 -41.0000 0
        CHANNELS 3 Zrotation Xrotation Yrotation
        JOINT mixamorig:LeftToeBase
        {
          OFFSET 0 -7.0000 12.0000
          CHANNELS 3 Zrotation Xrotation Yrotation
          End Site
          {
            OFFSET 0 0 5.0000
          }
        }
      }
    }
  }
  JOINT mixamorig:RightUpLeg
  {
    OFFSET -9.0000 -6.0000 0
    CHANNELS 3 Zrotation Xrotation Yrotation
    JOINT mixamorig:RightLeg
    {
      OFFSET 0 -43.0000 0
      CHANNELS 3 Zrotation Xrotation Yrotation
      JOINT mixamorig:RightFoot
      {
        OFFSET 0 -41.0000 0
        CHANNELS 3 Zrotation Xrotation Yrotation
        JOINT mixamorig:RightToeBase
        {
          OFFSET 0 -7.0000 12.0000
          CHANNELS 3 Zrotation Xrotation Yrotation
          End Site
          {
            OFFSET 0 0 5.0000
          }
        }
      }
    }
  }
}
MOTION
Frames: 9
Frame Time: 0.0166667
0 98.0000 0 0 0 0 0 0 0 0 8.0000 0 0 0 0 0 5.0000 0 0 10.0000 0 0 0 0 -60.0000 0 0 0 0 -70.0000 15.0000 0 0 0 0 0 0 0 0 0 0 0 0 0 0 -30.0000 0 0 -30.0000 0 0 -30.0000 0 0 0 0 0 0 0 0 0 0 0 0 0 0 0 0 0 0 0 0 0 0 0 0 0 0 0 0 0 0 0 0 0 0 0 0 0 0 0 0 0 0 0 0 70.0000 0 0 0 0 75.0000 0 -15.0000 0 0 0 0 0 0 0 0 0 0 0 0 0 0 0 0 0 0 0 0 0 0 0 0 0 0 0 0 0 0 0 0 0 0 0 0 0 0 0 0 0 0 0 0 0 0 0 0 0 0 0 0 0 0 0 0 0 0 0 0 0 0 -20.0000 0 0 50.0000 0 0 10.0000 0 0 0 0 0 -20.0000 0 0 50.0000 0 0 0 0 0 0 0
0 98.3136 0.8333 0 0 0.5234 0 0 0 0 8.3140 0 0 0 -0.3140 0 4.9931 0 -0.2764 9.9825 1.5942 0 0 0 -59.9935 1.1331 -0.6543 0 0 -71.5701 14.9794 1.0467 0 0 0 0 0 0 0 0 0 0 0 0 0 -31.5701 0 0 -31.5701 0 0 -31.5701 0 0 0 0 0 0 0 0 0 0 0 0 0 0 0 0 0 0 0 0 0 0 0 0 0 0 0 0 0 0 0 0 0 0 0 0 0 0 0 0 0 0 0 0 69.9969 0.9836 0.3580 0 0 74.9794 0 -14.9794 0 0 0 0 0 0 0 0 0 0 0 0 0 0 0 0 0 0 0 0 0 0 0 0 0 0 0 0 0 0 0 0 0 0 0 0 0 0 0 0 0 0 0 0 0 0 0 0 0 0 0 0 0 0 0 0 0 0 0 0 0 0 -21.3084 0 0 51.3084 0 0 9.9863 0 0 0 0 0 -18.6916 0 0 48.6916 0 0 0 0 0 0 0
0 98.6237 1.6667 0 0 1.0453 0 0 0 0 8.6272 0 0 0 -0.6272 0 4.9726 0 -0.5496 9.9302 3.1836 0 0 0 -59.9742 2.2629 -1.3073 0 0 -73.1359 14.9178 2.0906 0 0 0 0 0 0 0 0 0 0 0 0 0 -33.1359 0 0 -33.1359 0 0 -33.1359 0 0 0 0 0 0 0 0 0 0 0 0 0 0 0 0 0 0 0 0 0 0 0 0 0 0 0 0 0 0 0 0 0 0 0 0 0 0 0 0 0 0 0 0 69.9877 1.9644 0.7153 0 0 74.9178 0 -14.9178 0 0 0 0 0 0 0 0 0 0 0 0 0 0 0 0 0 0 0 0 0 0 0 0 0 0 0 0 0 0 0 0 0 0 0 0 0 0 0 0 0 0 0 0 0 0 0 0 0 0 0 0 0 0 0 0 0 0 0 0 0 0 -22.6132 0 0 52.6132 0 0 9.9452 0 0 0 0 0 -17.3868 0 0 47.3868 0 0 0 0 0 0 0
0 98.9271 2.5000 0 0 1.5643 0 0 0 0 8.9386 0 0 0 -0.9386 0 4.9384 0 -0.8161 9.8434 4.7633 0 0 0 -59.9421 3.3862 -1.9577 0 0 -74.6930 14.8153 3.1287 0 0 0 0 0 0 0 0 0 0 0 0 0 -34.6930 0 0 -34.6930 0 0 -34.6930 0 0 0 0 0 0 0 0 0 0 0 0 0 0 0 0 0 0 0 0 0 0 0 0 0 0 0 0 0 0 0 0 0 0 0 0 0 0 0 0 0 0 0 0 69.9725 2.9398 1.0710 0 0 74.8153 0 -14.8153 0 0 0 0 0 0 0 0 0 0 0 0 0 0 0 0 0 0 0 0 0 0 0 0 0 0 0 0 0 0 0 0 0 0 0 0 0 0 0 0 0 0 0 0 0 0 0 0 0 0 0 0 0 0 0 0 0 0 0 0 0 0 -23.9109 0 0 53.9109 0 0 9.8769 0 0 0 0 0 -16.0891 0 0 46.0891 0 0 0 0 0 0 0
0 99.2202 3.3333 0 0 2.0791 0 0 0 0 9.2475 0 0 0 -1.2475 0 4.8907 0 -1.0731 9.7230 6.3286 0 0 0 -59.8977 4.4999 -2.6043 0 0 -76.2374 14.6722 4.1582 0 0 0 0 0 0 0 0 0 0 0 0 0 -36.2374 0 0 -36.2374 0 0 -36.2374 0 0 0 0 0 0 0 0 0 0 0 0 0 0 0 0 0 0 0 0 0 0 0 0 0 0 0 0 0 0 0 0 0 0 0 0 0 0 0 0 0 0 0 0 69.9514 3.9071 1.4244 0 0 74.6722 0 -14.6722 0 0 0 0 0 0 0 0 0 0 0 0 0 0 0 0 0 0 0 0 0 0 0 0 0 0 0 0 0 0 0 0 0 0 0 0 0 0 0 0 0 0 0 0 0 0 0 0 0 0 0 0 0 0 0 0 0 0 0 0 0 0 -25.1978 0 0 55.1978 0 0 9.7815 0 0 0 0 0 -14.8022 0 0 44.8022 0 0 0 0 0 0 0
0 99.5000 4.1667 0 0 2.5882 0 0 0 0 9.5529 0 0 0 -1.5529 0 4.8296 0 -1.3173 9.5699 7.8748 0 0 0 -59.8412 5.6006 -3.2456 0 0 -77.7646 14.4889 5.1764 0 0 0 0 0 0 0 0 0 0 0 0 0 -37.7646 0 0 -37.7646 0 0 -37.7646 0 0 0 0 0 0 0 0 0 0 0 0 0 0 0 0 0 0 0 0 0 0 0 0 0 0 0 0 0 0 0 0 0 0 0 0 0 0 0 0 0 0 0 0 69.9246 4.8634 1.7747 0 0 74.4889 0 -14.4889 0 0 0 0 0 0 0 0 0 0 0 0 0 0 0 0 0 0 0 0 0 0 0 0 0 0 0 0 0 0 0 0 0 0 0 0 0 0 0 0 0 0 0 0 0 0 0 0 0 0 0 0 0 0 0 0 0 0 0 0 0 0 -26.4705 0 0 56.4705 0 0 9.6593 0 0 0 0 0 -13.5295 0 0 43.5295 0 0 0 0 0 0 0
0 99.7634 5.0000 0 0 3.0902 0 0 0 0 9.8541 0 0 0 -1.8541 0 4.7553 0 -1.5460 9.3852 9.3974 0 0 0 -59.7733 6.6853 -3.8803 0 0 -79.2705 14.2658 6.1803 0 0 0 0 0 0 0 0 0 0 0 0 0 -39.2705 0 0 -39.2705 0 0 -39.2705 0 0 0 0 0 0 0 0 0 0 0 0 0 0 0 0 0 0 0 0 0 0 0 0 0 0 0 0 0 0 0 0 0 0 0 0 0 0 0 0 0 0 0 0 69.8924 5.8063 2.1211 0 0 74.2658 0 -14.2658 0 0 0 0 0 0 0 0 0 0 0 0 0 0 0 0 0 0 0 0 0 0 0 0 0 0 0 0 0 0 0 0 0 0 0 0 0 0 0 0 0 0 0 0 0 0 0 0 0 0 0 0 0 0 0 0 0 0 0 0 0 0 -27.7254 0 0 57.7254 0 0 9.5106 0 0 0 0 0 -12.2746 0 0 42.2746 0 0 0 0 0 0 0
0 100.0074 5.8333 0 0 3.5837 0 0 0 0 10.1502 0 0 0 -2.1502 0 4.6679 0 -1.7565 9.1705 10.8919 0 0 0 -59.6945 7.7509 -4.5071 0 0 -80.7510 14.0037 7.1674 0 0 0 0 0 0 0 0 0 0 0 0 0 -40.7510 0 0 -40.7510 0 0 -40.7510 0 0 0 0 0 0 0 0 0 0 0 0 0 0 0 0 0 0 0 0 0 0 0 0 0 0 0 0 0 0 0 0 0 0 0 0 0 0 0 0 0 0 0 0 69.8551 6.7330 2.4627 0 0 74.0037 0 -14.0037 0 0 0 0 0 0 0 0 0 0 0 0 0 0 0 0 0 0 0 0 0 0 0 0 0 0 0 0 0 0 0 0 0 0 0 0 0 0 0 0 0 0 0 0 0 0 0 0 0 0 0 0 0 0 0 0 0 0 0 0 0 0 -28.9592 0 0 58.9592 0 0 9.3358 0 0 0 0 0 -11.0408 0 0 41.0408 0 0 0 0 0 0 0
0 100.2294 6.6667 0 0 4.0674 0 0 0 0 10.4404 0 0 0 -2.4404 0 4.5677 0 -1.9467 8.9274 12.3541 0 0 0 -59.6057 8.7944 -5.1246 0 0 -82.2021 13.7032 8.1347 0 0 0 0 0 0 0 0 0 0 0 0 0 -42.2021 0 0 -42.2021 0 0 -42.2021 0 0 0 0 0 0 0 0 0 0 0 0 0 0 0 0 0 0 0 0 0 0 0 0 0 0 0 0 0 0 0 0 0 0 0 0 0 0 0 0 0 0 0 0 69.8131 7.6411 2.7989 0 0 73.7032 0 -13.7032 0 0 0 0 0 0 0 0 0 0 0 0 0 0 0 0 0 0 0 0 0 0 0 0 0 0 0 0 0 0 0 0 0 0 0 0 0 0 0 0 0 0 0 0 0 0 0 0 0 0 0 0 0 0 0 0 0 0 0 0 0 0 -30.1684 0 0 60.1684 0 0 9.1355 0 0 0 0 0 -9.8316 0 0 39.8316 0 0 0 0 0 0 0
